<svg width="100" height="100" viewBox="0 0 100 100" fill="none" xmlns="http://www.w3.org/2000/svg">
<path d="M37.7647 59.8236C37.7647 62.2354 38.0588 64.5883 38.5882 66.8236C35.9706 65.7942 33.5 64.5001 31.1765 62.9707C29.5294 58.0589 28.6471 52.7942 28.6765 47.3236C28.6765 46.9413 28.6765 46.5295 28.6765 46.1472C35.3235 39.0001 44.5 34.2061 54.7646 33.2061C44.7647 37.8825 37.7941 48.0295 37.7647 59.8236Z" fill="url(#paint0_linear)"/>
<path d="M99.9998 50.0881C99.9998 54.4116 99.441 58.6469 98.3822 62.6469C94.4704 77.6762 83.7351 89.9703 69.6764 95.9703C60.8529 94.4703 52.8529 90.6468 46.2941 85.1468C42.6765 82.1174 39.5 78.5586 36.8824 74.588C34.5 70.9998 32.5883 67.088 31.2059 62.941C33.5295 64.4704 36 65.7645 38.6177 66.7939C43.0882 68.5586 47.9706 69.5292 53.0588 69.5292C63.2646 69.5586 72.5587 65.7057 79.5881 59.4116C82.0293 57.2351 84.1763 54.7645 85.9998 52.0587C87.2351 50.2646 88.294 48.3528 89.2057 46.3528C89.794 45.0587 90.3234 43.7058 90.794 42.3234C92.0881 38.4117 92.7939 34.2352 92.7939 29.8823C92.7939 27.6176 92.6175 25.4117 92.2645 23.2646C97.1763 31.0587 100.029 40.2352 99.9998 50.0881Z" fill="url(#paint1_linear)"/>
<path d="M69.7057 95.9704C63.6469 98.5586 56.9411 99.9998 49.9411 99.9998C39.2352 99.9704 29.3529 96.6174 21.2353 90.8822C8.35299 81.8234 -0.0293345 66.8528 7.71494e-05 49.9117C0.0294888 34.6177 6.91182 20.9118 17.7647 11.7648C26.4706 4.41189 37.7646 -0.0292665 50.0881 0.000145179C53.794 0.000145179 57.3822 0.411908 60.8528 1.17661C56.4705 2.79425 52.3528 5.02954 48.647 7.76482C37.647 15.9413 30.147 28.5883 28.8823 43C28.7941 44.0294 28.7353 45.0882 28.7059 46.147C28.7059 46.5294 28.7059 46.9412 28.7059 47.3235C28.7059 52.7941 29.5882 58.0588 31.2058 62.9705C32.5882 67.1176 34.5 71.0293 36.8823 74.6175C39.4999 78.5587 42.6764 82.1175 46.294 85.1763C52.8528 90.6469 60.8822 94.4704 69.7057 95.9704Z" fill="url(#paint2_linear)"/>
<path d="M80.294 35.3528C79.5587 34.3234 78.7352 33.3528 77.8529 32.441C72.4999 26.8528 65 23.3822 56.647 23.3822C43.8236 23.3528 32.9118 31.5587 28.853 42.9998C30.1177 28.5587 37.6177 15.9117 48.6471 7.76465C63.0294 9.88229 74.8234 19.8528 79.5881 33.1763C79.8528 33.9116 80.0881 34.6469 80.294 35.3528Z" fill="url(#paint3_linear)"/>
<defs>
<linearGradient id="paint0_linear" x1="41.6967" y1="66.8317" x2="41.7473" y2="33.1819" gradientUnits="userSpaceOnUse">
<stop stop-color="#F9A219"/>
<stop offset="1" stop-color="#FEE800"/>
</linearGradient>
<linearGradient id="paint1_linear" x1="99.9853" y1="59.6691" x2="31.1974" y2="59.5657" gradientUnits="userSpaceOnUse">
<stop stop-color="#FEC708"/>
<stop offset="1" stop-color="#FBE706"/>
</linearGradient>
<linearGradient id="paint2_linear" x1="80.0227" y1="85.6744" x2="11.9165" y2="17.363" gradientUnits="userSpaceOnUse">
<stop stop-color="#F6981C"/>
<stop offset="1" stop-color="#FEE800"/>
</linearGradient>
<linearGradient id="paint3_linear" x1="28.877" y1="25.4002" x2="80.3031" y2="25.4002" gradientUnits="userSpaceOnUse">
<stop offset="0.00974543" stop-color="#F9A518"/>
<stop offset="1" stop-color="#FCE208"/>
</linearGradient>
</defs>
</svg>
