<svg width="24" height="24" viewBox="0 0 24 24" fill="none" xmlns="http://www.w3.org/2000/svg">
<path d="M12 2C6.48 2 2 6.48 2 12C2 17.52 6.48 22 12 22C17.52 22 22 17.52 22 12C22 6.48 17.52 2 12 2ZM12 20C7.58 20 4 16.42 4 12C4 7.58 7.58 4 12 4C16.42 4 20 7.58 20 12C20 16.42 16.42 20 12 20Z" fill="url(#paint0_linear_728:87)"/>
<path d="M12 17C14.7614 17 17 14.7614 17 12C17 9.23858 14.7614 7 12 7C9.23858 7 7 9.23858 7 12C7 14.7614 9.23858 17 12 17Z" fill="url(#paint1_linear_728:87)"/>
<defs>
<linearGradient id="paint0_linear_728:87" x1="1.20705" y1="25.0957" x2="25.9515" y2="22.1316" gradientUnits="userSpaceOnUse">
<stop stop-color="#FBDE51"/>
<stop offset="1" stop-color="#F2805A"/>
<stop offset="1" stop-color="#F2805A"/>
</linearGradient>
<linearGradient id="paint1_linear_728:87" x1="6.60352" y1="18.5478" x2="18.9758" y2="17.0658" gradientUnits="userSpaceOnUse">
<stop stop-color="#FBDE51"/>
<stop offset="1" stop-color="#F2805A"/>
<stop offset="1" stop-color="#F2805A"/>
</linearGradient>
</defs>
</svg>
