<svg xmlns="http://www.w3.org/2000/svg" xmlns:xlink="http://www.w3.org/1999/xlink" viewBox="0 0 1080 1358.18"><defs><style>.cls-1{fill:url(#Degradado_sin_nombre_42);}.cls-2{fill:url(#Degradado_sin_nombre_42-2);}</style><linearGradient id="Degradado_sin_nombre_42" x1="370.02" y1="1279.84" x2="695.82" y2="715.54" gradientUnits="userSpaceOnUse"><stop offset="0" stop-color="#f69a1b"/><stop offset="0.5" stop-color="#fac20d"/><stop offset="1" stop-color="#fddc04"/></linearGradient><linearGradient id="Degradado_sin_nombre_42-2" x1="392.43" y1="642.51" x2="712.7" y2="87.79" xlink:href="#Degradado_sin_nombre_42"/></defs><title>SolarX</title><g id="Capa_4" data-name="Capa 4"><path class="cls-1" d="M1005.4,1356.89l-480.78,1.29c-20.34.06-39.37-8.53-50.69-22.88L10.59,719.85c-27.08-34.51.65-82.22,50.51-82.22l459.28-11.47c20.66-.55,40.23,7.87,52,22.33L1055.26,1276C1083,1310.2,1054.25,1356.75,1005.4,1356.89Z"/><path class="cls-2" d="M1020,718.1l-475.61,1.27c-20.12.06-38.95-8.38-50.15-22.48L35.87,92.09c-26.79-33.91.64-80.8,50-80.8L540.17,0C560.61-.51,580,7.75,591.57,22L1069.3,638.64C1096.7,672.22,1068.31,718,1020,718.1Z"/></g></svg>